<svg xmlns="http://www.w3.org/2000/svg" viewBox="0 0 430 136">
<path d="M36.70 100.00L36.70 89.48L55.95 89.48Q62.04 89.48 65.27 87.02Q68.51 84.55 68.51 79.87L68.51 79.77Q68.51 76.66 67.02 74.52Q65.53 72.39 62.60 71.31Q59.67 70.23 55.34 70.23L36.70 70.23L36.70 60.62L53.67 60.62Q59.65 60.62 62.78 58.22Q65.91 55.82 65.91 51.44L65.91 51.34Q65.91 47.31 63.14 45.10Q60.38 42.88 55.41 42.88L36.70 42.88L36.70 32.36L59.06 32.36Q65.46 32.36 70.11 34.43Q74.77 36.51 77.30 40.32Q79.83 44.12 79.83 49.33L79.83 49.42Q79.83 53.15 78.12 56.31Q76.41 59.48 73.44 61.56Q70.48 63.65 66.75 64.16L66.75 64.45Q71.46 64.77 75.13 66.95Q78.80 69.13 80.88 72.67Q82.97 76.21 82.97 80.66L82.97 80.76Q82.97 86.66 80.12 90.98Q77.27 95.29 72.05 97.64Q66.82 100.00 59.58 100.00ZM29.62 100.00L29.62 32.36L43.78 32.36L43.78 100.00ZM88.79 100.00L88.79 32.36L102.47 32.36L102.47 100.00ZM125.26 100.80Q120.25 100.80 116.44 98.85Q112.63 96.91 110.50 93.47Q108.36 90.04 108.36 85.61L108.36 85.54Q108.36 80.95 110.66 77.69Q112.96 74.43 117.33 72.54Q121.70 70.66 127.93 70.26L147.53 69.04L147.53 77.55L130.00 78.70Q126.04 78.93 123.97 80.55Q121.91 82.16 121.91 84.84L121.91 84.91Q121.91 87.67 124.03 89.24Q126.15 90.81 129.69 90.81Q132.76 90.81 135.16 89.62Q137.57 88.42 138.96 86.34Q140.36 84.25 140.36 81.65L140.36 66.41Q140.36 63.06 138.24 61.13Q136.11 59.20 132.08 59.20Q128.26 59.20 126.00 60.78Q123.74 62.36 123.22 64.80L123.13 65.24L110.61 65.24L110.66 64.68Q111.06 60.02 113.75 56.42Q116.45 52.82 121.24 50.77Q126.04 48.72 132.67 48.72Q139.16 48.72 143.95 50.82Q148.75 52.91 151.40 56.70Q154.04 60.48 154.04 65.55L154.04 100.00L140.36 100.00L140.36 92.52L140.07 92.52Q138.65 95.08 136.43 96.94Q134.22 98.80 131.39 99.80Q128.57 100.80 125.26 100.80ZM184.38 101.03Q176.74 101.03 171.17 97.86Q165.60 94.68 162.59 88.80Q159.58 82.91 159.58 74.83L159.58 74.78Q159.58 66.74 162.62 60.89Q165.65 55.05 171.19 51.88Q176.74 48.72 184.26 48.72Q191.08 48.72 196.11 51.27Q201.14 53.83 203.97 58.19Q206.81 62.55 207.07 67.98L207.09 68.31L194.36 68.31L194.29 67.89Q193.68 64.30 191.19 61.88Q188.69 59.45 184.45 59.45Q181.10 59.45 178.64 61.30Q176.17 63.16 174.84 66.60Q173.50 70.05 173.50 74.85L173.50 74.90Q173.50 79.80 174.84 83.24Q176.17 86.69 178.65 88.49Q181.12 90.30 184.50 90.30Q188.62 90.30 191.13 87.99Q193.64 85.68 194.32 81.86L194.39 81.44L207.14 81.44L207.11 81.74Q206.78 87.23 203.92 91.59Q201.07 95.95 196.09 98.49Q191.10 101.03 184.38 101.03ZM212.77 100.00L212.77 32.36L226.45 32.36L226.45 100.00ZM244.38 100.00L228.87 77.80L237.52 67.38L260.16 100.00ZM224.79 85.21L224.79 69.86L226.74 69.86L243.70 49.75L259.22 49.75L236.04 76.16L232.99 76.16ZM262.88 100.00L262.88 32.36L276.57 32.36L276.57 100.00ZM299.36 100.80Q294.34 100.80 290.53 98.85Q286.73 96.91 284.59 93.47Q282.46 90.04 282.46 85.61L282.46 85.54Q282.46 80.95 284.76 77.69Q287.05 74.43 291.42 72.54Q295.80 70.66 302.03 70.26L321.62 69.04L321.62 77.55L304.09 78.70Q300.13 78.93 298.07 80.55Q296.01 82.16 296.01 84.84L296.01 84.91Q296.01 87.67 298.13 89.24Q300.25 90.81 303.79 90.81Q306.86 90.81 309.26 89.62Q311.66 88.42 313.06 86.34Q314.45 84.25 314.45 81.65L314.45 66.41Q314.45 63.06 312.33 61.13Q310.21 59.20 306.18 59.20Q302.36 59.20 300.10 60.78Q297.83 62.36 297.32 64.80L297.23 65.24L284.71 65.24L284.76 64.68Q285.15 60.02 287.85 56.42Q290.55 52.82 295.34 50.77Q300.13 48.72 306.76 48.72Q313.26 48.72 318.05 50.82Q322.84 52.91 325.49 56.70Q328.14 60.48 328.14 65.55L328.14 100.00L314.45 100.00L314.45 92.52L314.17 92.52Q312.74 95.08 310.53 96.94Q308.31 98.80 305.49 99.80Q302.66 100.80 299.36 100.80ZM345.33 100.00L331.94 49.75L345.72 49.75L353.34 87.04L353.62 87.04L362.53 49.75L375.63 49.75L384.61 87.04L384.89 87.04L392.50 49.75L406.03 49.75L392.72 100.00L378.14 100.00L369.02 64.47L368.74 64.47L359.72 100.00Z" fill="#F2F3F5"/>
</svg>