<svg xmlns="http://www.w3.org/2000/svg" viewBox="0 0 1024 1024">
<defs><linearGradient id="gold" x1="0" y1="0" x2="1" y2="0"><stop offset="0" stop-color="#CDA94E"/><stop offset="1" stop-color="#9C7A28"/></linearGradient><linearGradient id="field" x1="0" y1="0" x2="0" y2="1"><stop offset="0" stop-color="#0B0D10"/><stop offset="1" stop-color="#24272D"/></linearGradient></defs>
<rect width="1024" height="1024" fill="url(#field)"/>
<path d="M407.00 660.00L407.00 598.61L519.25 598.61Q554.79 598.61 573.66 584.26Q592.53 569.90 592.53 542.56L592.53 542.01Q592.53 523.83 583.85 511.39Q575.16 498.95 558.07 492.66Q540.98 486.37 515.69 486.37L407.00 486.37L407.00 430.31L505.98 430.31Q540.85 430.31 559.10 416.30Q577.35 402.29 577.35 376.72L577.35 376.17Q577.35 352.66 561.22 339.74Q545.09 326.82 516.10 326.82L407.00 326.82L407.00 265.43L537.43 265.43Q574.75 265.43 601.89 277.53Q629.03 289.63 643.80 311.85Q658.56 334.06 658.56 364.41L658.56 364.96Q658.56 386.70 648.58 405.16Q638.60 423.61 621.31 435.78Q604.01 447.95 582.27 450.96L582.27 452.60Q609.75 454.51 631.15 467.23Q652.55 479.94 664.71 500.59Q676.88 521.23 676.88 547.21L676.88 547.75Q676.88 582.21 660.27 607.36Q643.66 632.52 613.17 646.26Q582.68 660.00 540.44 660.00ZM365.71 660.00L365.71 265.43L448.29 265.43L448.29 660.00Z" fill="#F7F8FA"/>
<rect x="372" y="778" width="280" height="16" rx="8" fill="url(#gold)"/>
</svg>